<?xml version="1.0" encoding="UTF-8"?>
<!DOCTYPE svg PUBLIC "-//W3C//DTD SVG 1.1//EN" "http://www.w3.org/Graphics/SVG/1.1/DTD/svg11.dtd">
<!-- Creator: CorelDRAW X7 -->
<svg xmlns="http://www.w3.org/2000/svg" xml:space="preserve" width="4.75in" height="4.16666in" version="1.1" style="shape-rendering:geometricPrecision; text-rendering:geometricPrecision; image-rendering:optimizeQuality; fill-rule:evenodd; clip-rule:evenodd"
viewBox="0 0 4750 4167"
 xmlns:xlink="http://www.w3.org/1999/xlink">
 <defs>
  <style type="text/css">
   <![CDATA[
    .str0 {stroke:#FEFEFE;stroke-width:6.94488}
    .fil1 {fill:none}
    .fil0 {fill:#FEFEFE}
   ]]>
  </style>
 </defs>
 <g id="Layer_x0020_1">
  <metadata id="CorelCorpID_0Corel-Layer"/>
  <path class="fil0" d="M947 841l433 0 0 152 -126 0 0 810 -173 0 0 -258 -773 0 0 258 -173 0 0 -810 -126 0 0 -152 433 0 0 152 -134 0 0 404 773 0 0 -404 -134 0 0 -152zm307 1114l0 70 126 0 0 151 -433 0 0 -151 134 0 0 -70 173 0zm-946 0l0 70 134 0 0 151 -433 0 0 -151 126 0 0 -70 173 0zm2114 70l111 0 -24 -70 188 0 24 70 135 0 0 151 -434 0 0 -151zm34 -222l-28 -81 -513 0 -29 81 -177 0 338 -962 261 0 336 962 -188 0zm-622 152l-24 70 138 0 0 151 -433 0 0 -151 116 0 24 -70 179 0zm130 -380l413 0 -208 -597 -205 597zm1027 -734l426 0 0 152 -126 0 0 810 -174 0 0 -810 -126 0 0 -152zm300 1114l0 70 126 0 0 151 -426 0 0 -151 126 0 0 -70 174 0zm379 -1114l555 0c60,0 114,8 165,24 50,15 93,38 130,68 37,30 65,68 86,113 21,45 31,97 31,156 0,33 -6,66 -18,99 -12,32 -29,63 -50,90 -22,28 -47,53 -76,75 -30,22 -62,38 -97,50 15,7 30,16 45,28 15,12 29,27 42,44 13,17 25,37 36,59 11,22 20,45 26,71l22 85 -182 0 -8 -33c-18,-73 -46,-127 -83,-161 -38,-34 -89,-52 -153,-52l-172 0 0 246 -173 0 0 -810 -126 0 0 -152zm935 1114l14 54 115 0 2 167 -260 0 -54 -221 183 0zm-636 0l0 70 134 0 0 151 -433 0 0 -151 126 0 0 -70 173 0zm0 -962l0 420 256 0c34,0 65,-4 93,-13 27,-9 52,-22 72,-40 20,-18 36,-39 47,-65 12,-27 18,-57 18,-92 0,-66 -20,-118 -60,-155 -40,-37 -104,-55 -191,-55l-235 0z"/>
  <path class="fil0" d="M470 147c-14,-25 -34,-44 -58,-58 -24,-14 -50,-21 -80,-21 -25,0 -48,5 -69,16 -21,10 -39,24 -54,42 -14,18 -26,39 -34,63 -8,23 -13,48 -13,74 0,31 5,58 14,82 9,24 21,44 36,59 14,16 32,29 52,40 20,10 43,16 68,16 34,0 64,-9 90,-25 25,-17 47,-44 65,-83l57 27c-8,24 -22,47 -42,68 -20,22 -44,40 -73,53 -29,14 -61,20 -96,20 -34,0 -65,-6 -93,-19 -28,-13 -54,-31 -76,-54 -22,-24 -39,-51 -50,-83 -12,-33 -18,-66 -18,-101 0,-35 6,-69 18,-100 12,-31 28,-58 49,-81 21,-23 46,-42 75,-55 29,-13 60,-20 94,-20 30,0 56,4 78,13 22,8 41,19 56,30 15,12 29,25 40,39l34 0 0 58 -70 0zm496 -130l160 0 0 56 -51 0 0 230c0,27 3,51 9,70 6,20 15,36 26,48 11,12 24,21 39,27 15,5 32,8 50,8 18,0 36,-2 51,-7 16,-5 29,-14 40,-26 12,-11 20,-27 26,-47 7,-19 10,-44 10,-73l0 -230 -54 0 0 -56 160 0 0 56 -44 0 0 223c0,35 -5,67 -14,94 -10,28 -24,51 -41,70 -17,19 -37,33 -61,42 -23,10 -48,15 -74,15 -26,0 -51,-5 -74,-14 -22,-10 -42,-24 -59,-42 -17,-19 -30,-41 -40,-68 -9,-27 -14,-57 -14,-91l0 -229 -45 0 0 -56zm980 437l45 0 0 -384 -113 0 0 77 -66 0 0 -130 440 0 0 130 -67 0 0 -77 -130 0 0 384 51 0 0 56 -160 0 0 -56zm1241 0l47 0 0 -375 -47 0 0 -62 156 0 157 426 158 -426 148 0 0 62 -46 0 0 375 46 0 0 56 -160 0 0 -56 53 0 0 -378 -172 434 -56 0 -175 -436 0 380 51 0 0 56 -160 0 0 -56zm1047 -437l161 0 0 56 -47 0 92 159 100 -159 -52 0 0 -56 160 0 0 56 -42 0 -138 211 0 170 50 0 0 56 -160 0 0 -56 46 0 0 -172 -131 -209 -39 0 0 -56z"/>
  <path class="fil0" d="M805 2699l0 -33c-2,6 -6,11 -10,15 -4,4 -9,8 -14,10 -5,3 -10,5 -16,7 -6,1 -11,2 -17,2 -11,0 -21,-2 -30,-6 -9,-3 -17,-9 -25,-17 -7,-8 -13,-17 -16,-28 -4,-10 -6,-22 -6,-33 0,-12 2,-23 6,-33 3,-11 9,-20 16,-28 7,-7 15,-13 25,-18 9,-4 20,-6 31,-6 11,0 20,1 27,4 8,3 14,7 19,11 6,4 10,8 13,12l11 0 0 19 -24 0c-4,-8 -11,-15 -19,-19 -8,-5 -17,-7 -27,-7 -8,0 -16,2 -23,5 -7,4 -13,8 -18,14 -4,6 -8,13 -11,21 -3,8 -4,16 -4,25 0,9 1,18 4,27 3,8 7,15 12,20 5,5 10,9 17,12 7,4 15,5 23,5 14,0 26,-3 34,-10 9,-6 16,-17 19,-31l-46 0 0 -19 70 0 0 79 -21 0zm88 -165l118 0 0 46 -22 0 0 -27 -59 0 0 52 50 0 0 19 -50 0 0 56 59 0 0 -28 22 0 0 46 -118 0 0 -18 16 0 0 -127 -16 0 0 -19zm205 146l16 0 0 -128 -38 0 0 25 -22 0 0 -43 146 0 0 43 -22 0 0 -25 -43 0 0 128 17 0 0 18 -54 0 0 -18zm258 -146l54 0 0 19 -16 0 31 52 33 -52 -17 0 0 -19 53 0 0 19 -14 0 -46 70 0 57 17 0 0 18 -53 0 0 -18 15 0 0 -58 -44 -69 -13 0 0 -19zm261 168c-12,0 -22,-3 -32,-7 -9,-4 -17,-10 -25,-18 -7,-8 -13,-17 -17,-28 -3,-10 -5,-21 -5,-33 0,-12 2,-23 5,-33 4,-11 10,-20 17,-28 7,-7 15,-13 25,-18 9,-4 20,-6 32,-6 11,0 22,2 32,6 9,5 18,11 25,18 6,8 12,17 16,28 4,10 5,21 5,33 0,12 -1,23 -5,33 -4,11 -10,20 -17,28 -7,7 -15,13 -25,18 -9,4 -20,7 -31,7zm0 -21c8,0 16,-1 23,-5 7,-3 13,-8 18,-14 5,-6 9,-13 11,-21 3,-8 4,-16 4,-25 0,-9 -1,-18 -4,-26 -3,-8 -7,-15 -12,-21 -6,-6 -12,-10 -19,-14 -7,-3 -14,-4 -21,-4 -9,0 -17,2 -24,5 -7,4 -13,8 -18,14 -5,6 -8,13 -11,21 -3,8 -4,16 -4,25 0,10 1,19 4,27 3,8 7,15 12,20 5,5 11,10 18,13 6,4 14,5 23,5zm130 -147l54 0 0 19 -17 0 0 76c0,9 1,17 3,24 2,6 5,11 9,16 3,4 8,7 13,8 5,2 10,3 16,3 6,0 12,-1 17,-2 6,-2 10,-5 14,-9 3,-4 6,-9 8,-15 2,-7 3,-15 3,-25l0 -76 -17 0 0 -19 53 0 0 19 -15 0 0 74c0,12 -1,22 -5,31 -3,10 -7,17 -13,23 -6,7 -13,11 -20,15 -8,3 -16,4 -25,4 -9,0 -17,-1 -25,-4 -7,-3 -14,-8 -19,-14 -6,-6 -10,-14 -14,-23 -3,-9 -4,-19 -4,-30l0 -76 -16 0 0 -19zm204 0l69 0c7,0 14,1 20,3 6,2 11,4 16,8 4,4 8,9 10,14 3,6 4,12 4,19 0,4 -1,8 -2,12 -1,4 -4,8 -6,12 -3,3 -6,6 -10,9 -3,2 -7,5 -11,6 1,1 3,2 5,3 2,2 4,4 5,6 2,2 3,4 5,7 1,3 2,6 3,9l9 36 14 0 0 20 -32 0 -12 -50c-2,-9 -5,-15 -10,-20 -5,-4 -11,-6 -19,-6l-21 0 0 58 16 0 0 18 -53 0 0 -18 16 0 0 -127 -16 0 0 -19zm37 19l0 51 32 0c4,0 7,0 11,-1 3,-1 6,-3 9,-5 2,-2 4,-5 6,-8 1,-4 2,-7 2,-12 0,-8 -3,-14 -8,-19 -5,-4 -12,-6 -23,-6l-29 0zm267 -19l61 0c8,0 15,1 22,3 7,2 13,4 19,8 6,4 11,8 16,13 5,5 9,10 12,16 3,6 6,13 8,20 2,7 2,14 2,22 0,7 0,15 -2,22 -2,7 -5,13 -8,19 -3,7 -7,12 -12,17 -5,5 -10,9 -16,13 -6,4 -12,6 -19,8 -7,2 -14,3 -22,3l-61 0 0 -18 16 0 0 -127 -16 0 0 -19zm37 19l0 127 26 0c7,0 14,-2 21,-5 7,-4 13,-8 18,-14 5,-6 9,-12 11,-20 3,-8 5,-16 5,-25 0,-9 -2,-17 -5,-25 -2,-8 -6,-14 -11,-20 -5,-6 -11,-10 -18,-14 -7,-3 -14,-4 -21,-4l-26 0zm159 -19l68 0c8,0 14,1 20,3 7,2 12,4 17,8 4,4 8,9 10,14 3,6 4,12 4,19 0,4 -1,8 -2,12 -2,4 -4,8 -7,12 -2,3 -5,6 -9,9 -4,2 -7,5 -12,6 2,1 4,2 6,3 2,2 3,4 5,6 2,2 3,4 4,7 2,3 3,6 4,9l9 36 14 0 0 20 -32 0 -12 -50c-2,-9 -6,-15 -10,-20 -5,-4 -11,-6 -19,-6l-21 0 0 58 16 0 0 18 -53 0 0 -18 15 0 0 -127 -15 0 0 -19zm37 19l0 51 31 0c4,0 8,0 12,-1 3,-1 6,-3 8,-5 3,-2 5,-5 6,-8 2,-4 2,-7 2,-12 0,-8 -2,-14 -7,-19 -5,-4 -13,-6 -23,-6l-29 0zm153 -19l118 0 0 46 -22 0 0 -27 -59 0 0 52 49 0 0 19 -49 0 0 56 59 0 0 -28 22 0 0 46 -118 0 0 -18 16 0 0 -127 -16 0 0 -19zm269 146l14 0 -13 -38 -64 0 -12 38 17 0 0 18 -54 0 0 -18 14 0 52 -146 32 0 51 146 16 0 0 18 -53 0 0 -18zm-56 -56l50 0 -25 -73 -25 73zm158 56l16 0 0 -125 -16 0 0 -21 52 0 52 142 53 -142 50 0 0 21 -16 0 0 125 16 0 0 18 -54 0 0 -18 18 0 0 -127 -58 145 -18 0 -58 -145 0 127 17 0 0 18 -54 0 0 -18zm499 -146l53 0 0 19 -15 0 0 127 15 0 0 18 -53 0 0 -18 17 0 0 -59 -96 0 0 59 17 0 0 18 -53 0 0 -18 15 0 0 -127 -15 0 0 -19 53 0 0 19 -17 0 0 49 96 0 0 -49 -17 0 0 -19zm214 146l13 0 -12 -38 -64 0 -12 38 16 0 0 18 -53 0 0 -18 14 0 52 -146 32 0 51 146 16 0 0 18 -53 0 0 -18zm-57 -56l51 0 -25 -73 -26 73zm159 -90l52 0 0 19 -15 0 0 127 15 0 0 18 -52 0 0 -18 16 0 0 -127 -16 0 0 -19zm116 0l68 0c7,0 14,1 20,3 7,2 12,4 16,8 5,4 8,9 11,14 3,6 4,12 4,19 0,4 -1,8 -2,12 -2,4 -4,8 -7,12 -2,3 -5,6 -9,9 -4,2 -8,5 -12,6 2,1 4,2 6,3 1,2 3,4 5,6 1,2 3,4 4,7 2,3 3,6 3,9l10 36 14 0 0 20 -32 0 -12 -50c-2,-9 -6,-15 -10,-20 -5,-4 -11,-6 -19,-6l-21 0 0 58 16 0 0 18 -53 0 0 -18 15 0 0 -127 -15 0 0 -19zm37 19l0 51 31 0c4,0 8,0 11,-1 4,-1 7,-3 9,-5 3,-2 5,-5 6,-8 2,-4 2,-7 2,-12 0,-8 -2,-14 -7,-19 -5,-4 -13,-6 -23,-6l-29 0z"/>
  <g id="_630998390880">
   <g>
    <path class="fil0" d="M2771 3982c6,-20 7,-42 3,-64 -12,-58 -58,-100 -113,-106 -1,-1 -1,-1 -1,-1 -61,-9 -107,-101 -138,-137 -30,-37 -84,-96 -112,-123 -2,-2 -5,-5 -8,-11l86 -584 -146 467c0,0 -1,4 -3,12 -96,-166 -250,-449 -250,-449 0,0 191,570 197,590 -34,83 -71,189 -155,194 -1,0 -1,0 -1,0 -65,3 -117,63 -117,138 0,76 55,138 122,138 41,0 80,-29 115,-58 8,-35 7,-51 7,-80 0,-20 -4,-38 -10,-54l0 0c-10,-42 88,-244 106,-256 94,58 214,205 185,280 0,0 0,0 0,0 -14,28 -19,59 -13,90 13,63 66,108 127,108 8,0 16,0 24,-2 28,-6 53,-21 71,-44 12,3 29,9 41,21 42,45 83,12 92,0 9,-12 -88,-22 -109,-69zm-636 22c-44,0 -80,-43 -80,-96 0,-54 36,-97 80,-97 15,0 28,5 40,14 3,1 5,3 7,5 20,18 33,46 33,78 0,53 -36,96 -80,96zm203 -449c-14,0 -26,-12 -26,-27 0,-14 12,-26 26,-26 15,0 27,12 27,26 0,15 -12,27 -27,27zm383 441c-12,19 -31,33 -53,37 -6,1 -11,2 -16,2 -41,0 -77,-32 -86,-75 -5,-24 0,-49 12,-69 13,-20 32,-33 54,-37 5,-2 10,-2 15,-2 41,0 77,31 86,75 5,24 1,48 -12,69z"/>
    <path class="fil0" d="M2180 3322l-12 -38c-30,-2 -59,-4 -87,-6 -34,-3 -65,-6 -94,-10 -29,-4 -56,-8 -79,-13 -23,-4 -43,-9 -60,-14 -16,-6 -29,-11 -37,-14 -8,-4 -12,-7 -12,-7 0,0 3,3 11,8 8,6 19,13 35,20 32,15 79,31 138,43 29,7 61,13 94,17 33,5 67,10 103,14z"/>
    <path class="fil0" d="M2303 3332c17,2 34,3 51,4l12 -40c-22,-2 -44,-3 -66,-4 -7,0 -14,-1 -20,-1l23 41z"/>
    <path class="fil0" d="M3026 3412c-1,-2 -3,-5 -6,-8 -6,-7 -17,-16 -33,-24 -16,-8 -36,-16 -59,-22 -23,-7 -50,-13 -79,-19 -30,-5 -62,-10 -95,-14 -34,-4 -70,-8 -107,-11 -36,-3 -75,-7 -113,-9 -27,-1 -53,-3 -80,-5l-5 41c28,2 55,3 82,4 39,3 77,4 114,6 37,1 72,3 106,5 33,2 65,4 94,7 58,6 107,13 139,25 16,5 27,12 34,17 4,3 6,6 8,8 1,1 2,2 2,2 0,0 0,-1 -2,-3z"/>
    <path class="fil0" d="M1870 3207c24,8 51,16 81,22 30,7 62,12 97,17 34,5 71,9 109,12 1,0 2,0 4,0l-12 -37c-34,-2 -67,-4 -98,-6 -34,-3 -67,-6 -96,-9 -30,-4 -57,-9 -81,-14 -23,-5 -44,-11 -60,-17 -17,-6 -29,-12 -38,-16 -8,-4 -12,-7 -12,-7 0,0 4,3 11,9 8,6 20,14 36,22 15,8 35,16 59,24z"/>
    <path class="fil0" d="M2387 3229c-38,-2 -75,-3 -112,-4 -11,0 -22,0 -32,-1l23 41c2,0 5,0 7,0 34,2 67,3 101,5l13 -41z"/>
    <path class="fil0" d="M2741 3251c-35,-5 -72,-8 -109,-11 -38,-2 -77,-5 -117,-7 -17,0 -34,-1 -52,-2l-5 41c19,1 37,1 56,1 39,2 78,2 116,4 37,1 73,3 108,5 34,2 66,4 96,8 30,4 57,8 80,13 24,6 44,12 60,19 15,7 27,15 34,21 4,3 6,6 8,7 2,2 3,3 3,3 0,0 -1,-1 -3,-3 -1,-2 -3,-5 -6,-9 -7,-7 -17,-17 -32,-26 -31,-19 -80,-37 -140,-49 -30,-6 -63,-11 -97,-15z"/>
    <path class="fil0" d="M2226 3185c40,1 80,3 120,4 18,1 35,1 53,2l12 -41c-21,-1 -42,-1 -63,-2 -41,-1 -81,-3 -120,-4 -10,0 -20,0 -30,-1l23 41c1,0 3,0 5,1z"/>
    <path class="fil0" d="M1903 3148c30,7 63,12 97,17 35,5 72,9 109,12 9,1 19,1 28,2l-12 -38c-4,0 -9,0 -13,-1 -38,-2 -74,-3 -108,-6 -34,-3 -67,-6 -96,-9 -30,-4 -57,-9 -81,-14 -24,-5 -44,-11 -60,-17 -17,-6 -29,-11 -38,-16 -8,-4 -12,-7 -12,-7 0,0 4,3 11,9 8,6 19,14 35,22 16,8 36,17 60,24 23,8 51,16 80,22z"/>
    <path class="fil0" d="M2468 3193c39,1 77,1 114,3 38,1 74,3 109,5 34,2 66,5 96,8 29,4 56,8 80,13 23,6 44,12 59,19 16,7 28,15 35,21 4,3 6,6 8,7 1,2 2,3 2,3 0,0 0,-1 -2,-3 -1,-2 -3,-5 -7,-9 -6,-7 -16,-17 -32,-26 -30,-19 -80,-37 -139,-49 -30,-6 -63,-11 -98,-15 -34,-5 -71,-8 -109,-11 -36,-2 -73,-5 -110,-6l-6 40z"/>
   </g>
  </g>
  <line class="fil1 str0" x1="4328" y1="2629" x2="4728" y2= "2629" />
  <line class="fil1 str0" x1="28" y1="2629" x2="428" y2= "2629" />
  <g id="_630998382048">
   <g id="_772851753456">
   </g>
   <g id="_772851753680">
   </g>
   <g id="_772851753328">
   </g>
   <g id="_772851754384">
   </g>
   <g id="_772851754256">
   </g>
   <g id="_772851751280">
   </g>
   <g id="_772851752432">
   </g>
   <g id="_772851752080">
   </g>
   <g id="_772851751472">
   </g>
   <g id="_772851752368">
   </g>
   <g id="_772851751376">
   </g>
   <g id="_772851752176">
   </g>
   <g id="_772851752944">
   </g>
   <g id="_772851749744">
   </g>
   <g id="_772851749072">
   </g>
  </g>
 </g>
</svg>
