<?xml version="1.0" encoding="UTF-8"?>
<!DOCTYPE svg PUBLIC "-//W3C//DTD SVG 1.1//EN" "http://www.w3.org/Graphics/SVG/1.1/DTD/svg11.dtd">
<!-- Creator: CorelDRAW X7 -->
<svg xmlns="http://www.w3.org/2000/svg" xml:space="preserve" width="0.499992in" height="0.499992in" version="1.1" style="shape-rendering:geometricPrecision; text-rendering:geometricPrecision; image-rendering:optimizeQuality; fill-rule:evenodd; clip-rule:evenodd"
viewBox="0 0 500 500"
 xmlns:xlink="http://www.w3.org/1999/xlink">
 <defs>
  <style type="text/css">
   <![CDATA[
    .fil0 {fill:#FF4D4D}
   ]]>
  </style>
 </defs>
 <g id="Layer_x0020_1">
  <metadata id="CorelCorpID_0Corel-Layer"/>
  <g id="_631003211488">
   <g>
    <path class="fil0" d="M71 174c21,-47 55,-82 103,-103 24,-10 49,-15 76,-15 26,0 51,5 75,15 49,21 84,55 104,103 10,24 15,49 15,76 0,26 -5,51 -15,75 -20,48 -55,83 -104,104 -24,10 -49,15 -75,15 -27,0 -52,-5 -76,-15 -48,-21 -82,-56 -103,-104 -10,-24 -15,-49 -15,-75 0,-27 5,-52 15,-76zm22 142c9,21 21,40 36,55 15,15 34,27 55,36 21,9 43,14 66,14 31,0 59,-8 86,-23 26,-15 47,-36 62,-62 15,-27 23,-55 23,-86 0,-31 -8,-60 -23,-86 -15,-26 -36,-47 -62,-62 -27,-15 -55,-23 -86,-23 -31,0 -60,8 -86,23 -26,15 -47,36 -62,62 -15,27 -23,55 -23,86 0,23 5,45 14,66z"/>
    <path class="fil0" d="M305 251l-95 -98c-4,-4 -4,-11 1,-16 4,-4 11,-4 16,1l103 105c4,4 5,12 0,17l-103 102c-2,3 -5,4 -8,4 -4,0 -7,-1 -9,-4 -4,-4 -4,-11 0,-16l95 -95z"/>
   </g>
  </g>
  <g id="_631003211328">
  </g>
  <g id="_631003211008">
  </g>
  <g id="_631003211392">
  </g>
  <g id="_631003210912">
  </g>
  <g id="_631003210336">
  </g>
  <g id="_631003211168">
  </g>
  <g id="_631003209472">
  </g>
  <g id="_631003208096">
  </g>
  <g id="_631003209728">
  </g>
  <g id="_631003208224">
  </g>
  <g id="_631003209408">
  </g>
  <g id="_631003209024">
  </g>
  <g id="_631003206048">
  </g>
  <g id="_631003205536">
  </g>
  <g id="_631003205280">
  </g>
 </g>
</svg>
