<?xml version="1.0" encoding="UTF-8"?>
<!DOCTYPE svg PUBLIC "-//W3C//DTD SVG 1.1//EN" "http://www.w3.org/Graphics/SVG/1.1/DTD/svg11.dtd">
<!-- Creator: CorelDRAW X7 -->
<svg xmlns="http://www.w3.org/2000/svg" xml:space="preserve" width="0.624992in" height="0.624992in" version="1.1" style="shape-rendering:geometricPrecision; text-rendering:geometricPrecision; image-rendering:optimizeQuality; fill-rule:evenodd; clip-rule:evenodd"
viewBox="0 0 625 625"
 xmlns:xlink="http://www.w3.org/1999/xlink">
 <defs>
  <style type="text/css">
   <![CDATA[
    .fil0 {fill:#FEFEFE}
   ]]>
  </style>
 </defs>
 <g id="Layer_x0020_1">
  <metadata id="CorelCorpID_0Corel-Layer"/>
  <g id="_423606246128">
   <g>
    <path class="fil0" d="M481 510c3,-9 3,-18 2,-27 -5,-25 -25,-43 -48,-46 -1,0 -1,0 -1,0 -26,-3 -45,-43 -58,-58 -13,-15 -36,-40 -48,-52 0,-1 -2,-2 -3,-4l36 -248 -61 198c0,0 -1,2 -2,5 -40,-70 -105,-190 -105,-190 0,0 80,241 83,250 -14,35 -30,80 -66,82 0,0 0,0 0,0 -28,1 -50,27 -50,58 0,32 24,59 52,59 17,0 34,-12 48,-25 4,-15 4,-21 4,-34 0,-8 -2,-16 -5,-23l0 0c-4,-17 38,-103 45,-108 40,24 91,87 78,119 1,0 1,0 1,0 -6,11 -8,25 -6,38 6,26 28,46 54,46 3,0 7,-1 10,-1 12,-3 22,-9 30,-19 5,1 12,4 17,9 19,19 36,5 40,0 3,-5 -38,-10 -47,-29zm-269 9c-19,0 -34,-18 -34,-41 0,-22 15,-41 34,-41 6,0 12,3 17,6 1,1 2,2 3,2 8,8 14,20 14,33 0,23 -15,41 -34,41zm86 -190c-6,0 -11,-5 -11,-11 0,-7 5,-12 11,-12 6,0 11,5 11,12 0,6 -5,11 -11,11zm162 186c-5,9 -13,14 -22,16 -3,1 -5,1 -7,1 -18,0 -33,-13 -36,-32 -2,-10 -1,-20 5,-29 5,-8 13,-14 22,-16 2,0 5,0 7,0 17,0 33,13 36,31 2,11 0,21 -5,29z"/>
    <path class="fil0" d="M231 230l-5 -16c-13,-1 -25,-2 -37,-3 -14,-1 -28,-2 -40,-4 -12,-1 -23,-3 -33,-5 -10,-2 -19,-4 -26,-6 -6,-3 -12,-5 -15,-6 -4,-2 -6,-3 -6,-3 0,0 2,1 5,4 4,2 9,5 15,8 14,6 34,13 58,18 13,3 26,5 40,7 14,2 29,4 44,6z"/>
    <path class="fil0" d="M283 235c7,0 14,1 22,1l5 -17c-10,-1 -19,-1 -28,-2 -3,0 -6,0 -9,0l10 18z"/>
    <path class="fil0" d="M590 268c-1,-1 -2,-2 -3,-3 -3,-3 -7,-7 -14,-10 -7,-4 -15,-7 -25,-10 -10,-3 -21,-5 -34,-7 -12,-3 -26,-5 -40,-7 -14,-1 -29,-3 -45,-4 -16,-2 -32,-3 -48,-4 -11,-1 -23,-1 -34,-2l-2 17c12,1 23,2 35,2 16,1 32,1 48,2 15,1 31,2 45,3 14,0 27,1 40,3 24,2 45,5 58,10 7,2 12,5 15,7 2,2 3,3 3,4 1,0 1,1 1,1 0,0 0,-1 0,-2z"/>
    <path class="fil0" d="M100 182c10,3 21,6 34,9 13,3 26,5 41,7 15,2 30,4 46,5 1,0 1,0 2,0l-5 -16c-14,0 -28,-1 -42,-2 -14,-1 -28,-3 -40,-4 -13,-2 -24,-4 -34,-6 -11,-2 -19,-5 -26,-7 -7,-3 -12,-5 -16,-7 -3,-2 -5,-3 -5,-3 0,0 1,2 5,4 3,2 8,6 14,9 7,4 16,7 26,11z"/>
    <path class="fil0" d="M319 191c-16,-1 -32,-1 -48,-2 -4,0 -9,0 -13,0l9 17c1,0 2,0 3,0 15,1 29,1 43,2l6 -17z"/>
    <path class="fil0" d="M468 200c-14,-2 -30,-3 -46,-5 -16,-1 -32,-2 -49,-2 -7,-1 -15,-1 -22,-1l-2 17c8,0 16,0 23,1 17,0 34,0 49,1 16,1 32,1 46,2 15,1 28,2 41,4 13,1 24,3 34,5 10,3 19,5 25,8 7,3 12,6 15,9 1,1 2,2 3,3 1,1 1,1 1,1 0,0 0,0 -1,-1 0,-1 -1,-2 -3,-4 -2,-3 -7,-7 -13,-11 -13,-8 -34,-15 -59,-20 -13,-3 -27,-5 -42,-7z"/>
    <path class="fil0" d="M250 172c17,1 34,1 51,2 8,0 15,0 23,1l5 -18c-9,0 -18,0 -27,-1 -17,0 -34,-1 -51,-1 -4,0 -8,0 -12,-1l9 18c1,0 2,0 2,0z"/>
    <path class="fil0" d="M114 157c13,2 26,5 41,7 15,2 30,3 46,5 4,0 8,0 12,1l-5 -17c-2,0 -4,0 -6,0 -16,-1 -31,-1 -46,-2 -14,-2 -28,-3 -40,-4 -13,-2 -24,-4 -34,-6 -10,-2 -19,-5 -26,-7 -7,-3 -12,-5 -16,-7 -3,-2 -5,-3 -5,-3 0,0 1,1 5,4 3,2 8,6 14,9 7,3 16,7 26,10 10,4 21,7 34,10z"/>
    <path class="fil0" d="M353 175c17,1 33,1 48,2 16,0 32,1 46,2 15,1 28,2 41,3 13,2 24,4 34,6 10,2 19,5 25,8 7,3 12,6 15,9 1,1 2,2 3,3 1,1 1,1 1,1 0,0 0,0 -1,-1 0,-1 -1,-3 -3,-4 -2,-3 -7,-7 -13,-11 -13,-8 -34,-16 -59,-21 -13,-2 -27,-5 -42,-6 -14,-2 -30,-4 -46,-5 -15,-1 -31,-2 -47,-3l-2 17z"/>
   </g>
  </g>
 </g>
</svg>
