<?xml version="1.0" encoding="UTF-8"?>
<!DOCTYPE svg PUBLIC "-//W3C//DTD SVG 1.1//EN" "http://www.w3.org/Graphics/SVG/1.1/DTD/svg11.dtd">
<!-- Creator: CorelDRAW X7 -->
<svg xmlns="http://www.w3.org/2000/svg" xml:space="preserve" width="0.97222in" height="0.97222in" version="1.1" style="shape-rendering:geometricPrecision; text-rendering:geometricPrecision; image-rendering:optimizeQuality; fill-rule:evenodd; clip-rule:evenodd"
viewBox="0 0 972 972"
 xmlns:xlink="http://www.w3.org/1999/xlink">
 <defs>
  <style type="text/css">
   <![CDATA[
    .fil0 {fill:#FF4D4D}
   ]]>
  </style>
 </defs>
 <g id="Layer_x0020_1">
  <metadata id="CorelCorpID_0Corel-Layer"/>
  <g id="_631015427376">
   <rect class="fil0" x="486" width="3.30685" height="46.3002"/>
   <rect class="fil0" transform="matrix(0.237235 0.0200071 -0.00247881 0.0293926 527.059 1.77084)" width="13.8898" height="1569.64"/>
   <rect class="fil0" transform="matrix(0.234715 0.0398726 -0.00494008 0.0290803 567.625 6.91751)" width="13.8898" height="1569.64"/>
   <rect class="fil0" transform="matrix(0.230534 0.0594561 -0.0073664 0.0285623 607.612 15.4547)" width="13.8898" height="1569.64"/>
   <rect class="fil0" transform="matrix(0.224722 0.0786189 -0.00974064 0.0278422 646.741 27.3223)" width="13.8898" height="1569.64"/>
   <rect class="fil0" transform="matrix(0.21732 0.0972256 -0.0120459 0.0269252 684.735 42.4361)" width="13.8898" height="1569.64"/>
   <rect class="fil0" transform="matrix(0.208381 0.115144 -0.014266 0.0258176 721.323 60.6894)" width="13.8898" height="1569.64"/>
   <rect class="fil0" transform="matrix(0.197968 0.132248 -0.0163851 0.0245275 756.246 81.9525)" width="13.8898" height="1569.64"/>
   <rect class="fil0" transform="matrix(0.186154 0.148417 -0.0183884 0.0230637 789.261 106.076)" width="13.8898" height="1569.64"/>
   <rect class="fil0" transform="matrix(0.173023 0.163536 -0.0202616 0.0214369 820.136 132.888)" width="13.8898" height="1569.64"/>
   <rect class="fil0" transform="matrix(0.158668 0.177497 -0.0219913 0.0196584 848.645 162.2)" width="13.8898" height="1569.64"/>
   <rect class="fil0" transform="matrix(0.14319 0.190203 -0.0235655 0.0177408 874.586 193.804)" width="13.8898" height="1569.64"/>
   <rect class="fil0" transform="matrix(0.1267 0.201564 -0.0249731 0.0156976 897.784 227.476)" width="13.8898" height="1569.64"/>
   <rect class="fil0" transform="matrix(0.109313 0.211498 -0.0262039 0.0135435 918.068 262.979)" width="13.8898" height="1569.64"/>
   <rect class="fil0" transform="matrix(0.0911531 0.219936 -0.0272494 0.0112935 935.298 300.06)" width="13.8898" height="1569.64"/>
   <rect class="fil0" transform="matrix(0.0723476 0.226818 -0.0281021 0.00896363 949.355 338.459)" width="13.8898" height="1569.64"/>
   <rect class="fil0" transform="matrix(0.053031 0.232096 -0.0287559 0.00657037 960.132 377.902)" width="13.8898" height="1569.64"/>
   <rect class="fil0" transform="matrix(0.033339 0.235731 -0.0292063 0.00413059 967.55 418.112)" width="13.8898" height="1569.64"/>
   <rect class="fil0" transform="matrix(0.0134111 0.237699 -0.0294501 0.00166159 971.57 458.804)" width="13.8898" height="1569.64"/>
   <rect class="fil0" transform="matrix(-0.00661164 0.237985 -0.0294856 -0.00081916 972.157 499.689)" width="13.8898" height="1569.64"/>
   <rect class="fil0" transform="matrix(-0.0265876 0.236588 -0.0293125 -0.00329411 969.3 540.478)" width="13.8898" height="1569.64"/>
   <rect class="fil0" transform="matrix(-0.0463755 0.233517 -0.0289319 -0.00574578 963.028 580.885)" width="13.8898" height="1569.64"/>
   <rect class="fil0" transform="matrix(-0.0658353 0.228793 -0.0283468 -0.00815677 953.386 620.617)" width="13.8898" height="1569.64"/>
   <rect class="fil0" transform="matrix(-0.0848293 0.222451 -0.027561 -0.0105101 940.435 659.402)" width="13.8898" height="1569.64"/>
   <rect class="fil0" transform="matrix(-0.103223 0.214536 -0.0265803 -0.012789 924.272 696.961)" width="13.8898" height="1569.64"/>
   <rect class="fil0" transform="matrix(-0.120887 0.205103 -0.0254115 -0.0149775 905.01 733.03)" width="13.8898" height="1569.64"/>
   <rect class="fil0" transform="matrix(-0.137695 0.194218 -0.024063 -0.0170599 882.789 767.354)" width="13.8898" height="1569.64"/>
   <rect class="fil0" transform="matrix(-0.15353 0.18196 -0.0225442 -0.0190218 857.757 799.686)" width="13.8898" height="1569.64"/>
   <rect class="fil0" transform="matrix(-0.168278 0.168414 -0.020866 -0.020849 830.094 829.799)" width="13.8898" height="1569.64"/>
   <rect class="fil0" transform="matrix(-0.181835 0.153677 -0.0190401 -0.0225287 800.004 857.484)" width="13.8898" height="1569.64"/>
   <rect class="fil0" transform="matrix(-0.194107 0.137853 -0.0170795 -0.0240491 767.689 882.539)" width="13.8898" height="1569.64"/>
   <rect class="fil0" transform="matrix(-0.205005 0.121053 -0.0149981 -0.0253993 733.387 904.793)" width="13.8898" height="1569.64"/>
   <rect class="fil0" transform="matrix(-0.214453 0.103397 -0.0128106 -0.0265699 697.335 924.084)" width="13.8898" height="1569.64"/>
   <rect class="fil0" transform="matrix(-0.222383 0.0850098 -0.0105324 -0.0275524 659.787 940.281)" width="13.8898" height="1569.64"/>
   <rect class="fil0" transform="matrix(-0.22874 0.0660209 -0.00817975 -0.0283401 621.014 953.259)" width="13.8898" height="1569.64"/>
   <rect class="fil0" transform="matrix(-0.233479 0.046565 -0.00576927 -0.0289272 581.287 962.936)" width="13.8898" height="1569.64"/>
   <rect class="fil0" transform="matrix(-0.236566 0.0267796 -0.00331791 -0.0293097 540.888 969.242)" width="13.8898" height="1569.64"/>
   <rect class="fil0" transform="matrix(-0.23798 0.0068048 -0.000843094 -0.0294849 500.101 972.127)" width="13.8898" height="1569.64"/>
   <rect class="fil0" transform="matrix(-0.23771 -0.0132181 0.00163768 -0.0294515 459.215 971.573)" width="13.8898" height="1569.64"/>
   <rect class="fil0" transform="matrix(-0.235759 -0.0331476 0.00410688 -0.0292096 418.521 967.588)" width="13.8898" height="1569.64"/>
   <rect class="fil0" transform="matrix(-0.232139 -0.0528425 0.00654701 -0.0287612 378.305 960.198)" width="13.8898" height="1569.64"/>
   <rect class="fil0" transform="matrix(-0.226877 -0.0721635 0.00894083 -0.0281092 338.853 949.454)" width="13.8898" height="1569.64"/>
   <rect class="fil0" transform="matrix(-0.22001 -0.0909741 0.0112714 -0.0272585 300.442 935.431)" width="13.8898" height="1569.64"/>
   <rect class="fil0" transform="matrix(-0.211587 -0.109141 0.0135222 -0.0262149 263.347 918.235)" width="13.8898" height="1569.64"/>
   <rect class="fil0" transform="matrix(-0.201667 -0.126536 0.0156774 -0.0249858 227.828 897.979)" width="13.8898" height="1569.64"/>
   <rect class="fil0" transform="matrix(-0.19032 -0.143036 0.0177216 -0.0235799 194.137 874.805)" width="13.8898" height="1569.64"/>
   <rect class="fil0" transform="matrix(-0.177626 -0.158524 0.0196405 -0.0220073 162.512 848.886)" width="13.8898" height="1569.64"/>
   <rect class="fil0" transform="matrix(-0.163676 -0.172889 0.0214205 -0.0202789 133.177 820.405)" width="13.8898" height="1569.64"/>
   <rect class="fil0" transform="matrix(-0.148568 -0.186033 0.0230489 -0.0184071 106.339 789.552)" width="13.8898" height="1569.64"/>
   <rect class="fil0" transform="matrix(-0.132409 -0.19786 0.0245142 -0.016405 82.1896 756.56)" width="13.8898" height="1569.64"/>
   <rect class="fil0" transform="matrix(-0.115314 -0.208287 0.0258061 -0.0142869 60.8977 721.649)" width="13.8898" height="1569.64"/>
   <rect class="fil0" transform="matrix(-0.0974019 -0.217241 0.0269154 -0.0120677 42.6147 685.077)" width="13.8898" height="1569.64"/>
   <rect class="fil0" transform="matrix(-0.0788013 -0.224657 0.0278343 -0.00976321 27.47 647.095)" width="13.8898" height="1569.64"/>
   <rect class="fil0" transform="matrix(-0.059643 -0.230485 0.0285563 -0.00738959 15.5707 607.977)" width="13.8898" height="1569.64"/>
   <rect class="fil0" transform="matrix(-0.0400632 -0.234682 0.0290763 -0.00496368 7.00101 567.996)" width="13.8898" height="1569.64"/>
   <rect class="fil0" transform="matrix(-0.0201997 -0.237219 0.0293906 -0.00250267 1.8214 527.435)" width="13.8898" height="1569.64"/>
   <rect class="fil0" transform="matrix(-0.000193268 -0.238077 0.029497 -2.39452E-005 0.0686271 486.583)" width="13.8898" height="1569.64"/>
   <rect class="fil0" transform="matrix(0.0198145 -0.237251 0.0293946 0.00245494 1.75506 445.728)" width="13.8898" height="1569.64"/>
   <rect class="fil0" transform="matrix(0.0396821 -0.234747 0.0290844 0.00491647 6.86878 405.16)" width="13.8898" height="1569.64"/>
   <rect class="fil0" transform="matrix(0.0592688 -0.230582 0.0285683 0.00734319 15.3736 365.165)" width="13.8898" height="1569.64"/>
   <rect class="fil0" transform="matrix(0.0784366 -0.224786 0.0278502 0.00971799 27.2094 326.026)" width="13.8898" height="1569.64"/>
   <rect class="fil0" transform="matrix(0.0970491 -0.217399 0.026935 0.012024 42.2923 288.021)" width="13.8898" height="1569.64"/>
   <rect class="fil0" transform="matrix(0.114975 -0.208474 0.0258292 0.014245 60.516 251.417)" width="13.8898" height="1569.64"/>
   <rect class="fil0" transform="matrix(0.132088 -0.198075 0.0245408 0.0163652 81.7509 216.474)" width="13.8898" height="1569.64"/>
   <rect class="fil0" transform="matrix(0.148266 -0.186274 0.0230787 0.0183696 105.847 183.439)" width="13.8898" height="1569.64"/>
   <rect class="fil0" transform="matrix(0.163395 -0.173155 0.0214534 0.0202441 132.635 152.547)" width="13.8898" height="1569.64"/>
   <rect class="fil0" transform="matrix(0.177369 -0.158811 0.0196762 0.0219753 161.923 124.014)" width="13.8898" height="1569.64"/>
   <rect class="fil0" transform="matrix(0.190087 -0.143344 0.0177599 0.0235511 193.506 98.0438)" width="13.8898" height="1569.64"/>
   <rect class="fil0" transform="matrix(0.201461 -0.126863 0.0157179 0.0249603 227.16 74.8195)" width="13.8898" height="1569.64"/>
   <rect class="fil0" transform="matrix(0.211409 -0.109484 0.0135648 0.0261929 262.646 54.5054)" width="13.8898" height="1569.64"/>
   <rect class="fil0" transform="matrix(0.219862 -0.0913314 0.0113156 0.0272401 299.714 37.2453)" width="13.8898" height="1569.64"/>
   <rect class="fil0" transform="matrix(0.22676 -0.0725321 0.00898644 0.0280947 338.1 23.1612)" width="13.8898" height="1569.64"/>
   <rect class="fil0" transform="matrix(0.232053 -0.0532194 0.00659369 0.0287505 377.535 12.3529)" width="13.8898" height="1569.64"/>
   <rect class="fil0" transform="matrix(0.235704 -0.0335303 0.0041543 0.0292029 417.739 4.89675)" width="13.8898" height="1569.64"/>
   <rect class="fil0" transform="matrix(0.237689 -0.0136041 0.0016855 0.0294487 458.427 0.845551)" width="13.8898" height="1569.64"/>
  </g>
  <g id="_608217650416">
   <path class="fil0" d="M659 452l-104 103c-28,29 -75,29 -103,0l-35 -34 35 -35 34 35c10,9 25,9 35,0l103 -104c10,-10 10,-25 0,-35l-34 -34c-10,-10 -25,-10 -35,0l-37 37c-17,-10 -36,-15 -56,-13l59 -59c28,-28 75,-28 103,0l35 35c29,28 29,75 0,104zm-205 135l-37 37c-10,10 -25,10 -35,0l-34 -34c-10,-10 -10,-25 0,-35l104 -103c9,-10 25,-10 34,0l35 34 34 -34 -34 -35c-29,-29 -75,-29 -104,0l-104 104c-28,28 -28,75 0,103l35 35c28,29 75,29 104,0l58 -58c-19,1 -39,-3 -56,-14z"/>
  </g>
 </g>
</svg>
