<?xml version="1.0" encoding="UTF-8"?>
<!DOCTYPE svg PUBLIC "-//W3C//DTD SVG 1.1//EN" "http://www.w3.org/Graphics/SVG/1.1/DTD/svg11.dtd">
<!-- Creator: CorelDRAW X7 -->
<svg xmlns="http://www.w3.org/2000/svg" xml:space="preserve" width="1.72222in" height="1.72222in" version="1.1" style="shape-rendering:geometricPrecision; text-rendering:geometricPrecision; image-rendering:optimizeQuality; fill-rule:evenodd; clip-rule:evenodd"
viewBox="0 0 1722 1722"
 xmlns:xlink="http://www.w3.org/1999/xlink">
 <defs>
  <style type="text/css">
   <![CDATA[
    .fil0 {fill:#FEFEFE}
    .fil1 {fill:#6C6C6C}
   ]]>
  </style>
 </defs>
 <g id="Layer_x0020_1">
  <metadata id="CorelCorpID_0Corel-Layer"/>
  <circle class="fil0" cx="861" cy="861" r="715"/>
  <g id="_631008947712">
   <g>
    <path class="fil0" d="M1036 1065c2,-9 3,-19 1,-28 -5,-25 -26,-44 -50,-47 0,0 0,0 0,0 -27,-4 -47,-44 -60,-60 -13,-16 -37,-42 -50,-54 0,-1 -1,-2 -3,-4l38 -256 -64 204c0,0 -1,2 -2,5 -41,-72 -109,-196 -109,-196 0,0 84,250 86,258 -15,37 -31,83 -68,85 0,0 0,0 0,0 -28,1 -51,28 -51,60 0,34 24,61 53,61 18,0 35,-13 50,-25 4,-16 4,-23 4,-36 0,-8 -2,-16 -5,-23l0 0c-4,-18 39,-107 47,-112 41,25 93,89 80,123 0,0 1,0 1,0 -7,12 -9,25 -6,39 6,27 29,47 55,47 4,0 7,0 11,-1 12,-2 23,-9 31,-19 5,1 13,4 18,9 19,20 36,5 40,0 4,-5 -38,-10 -47,-30zm-279 10c-19,0 -35,-19 -35,-43 0,-23 16,-42 35,-42 7,0 13,2 18,6 1,1 2,2 3,2 9,8 14,20 14,34 0,24 -15,43 -35,43zm89 -197c-6,0 -11,-5 -11,-12 0,-6 5,-11 11,-11 7,0 12,5 12,11 0,7 -5,12 -12,12zm168 193c-6,8 -14,14 -24,16 -2,1 -4,1 -7,1 -18,0 -33,-14 -37,-33 -2,-10 0,-21 5,-30 6,-9 14,-14 24,-16 2,-1 4,-1 6,-1 18,0 34,14 38,33 2,10 0,21 -5,30z"/>
    <path class="fil0" d="M777 776l-5 -17c-13,0 -26,-1 -38,-2 -15,-2 -29,-3 -42,-5 -12,-1 -24,-3 -34,-5 -10,-2 -19,-4 -26,-7 -7,-2 -13,-4 -17,-6 -3,-2 -5,-3 -5,-3 0,0 2,2 5,4 3,2 9,6 15,9 14,6 35,13 61,19 12,2 26,5 41,7 14,2 29,4 45,6z"/>
    <path class="fil0" d="M831 781c7,0 14,1 22,1l5 -18c-9,0 -19,-1 -29,-1 -3,0 -6,0 -8,-1l10 19z"/>
    <path class="fil0" d="M1147 816c0,-1 -1,-3 -2,-4 -3,-3 -8,-7 -15,-11 -7,-3 -16,-6 -26,-9 -10,-3 -22,-6 -34,-8 -13,-3 -27,-5 -42,-7 -15,-1 -30,-3 -47,-5 -16,-1 -32,-2 -49,-3 -12,-1 -23,-2 -35,-2l-2 18c12,0 24,1 36,1 17,1 33,2 49,3 16,0 32,1 47,2 14,1 28,2 41,3 25,2 47,6 61,11 7,2 12,5 15,7 1,2 2,3 3,4 1,0 1,1 1,1 0,0 0,-1 -1,-1z"/>
    <path class="fil0" d="M641 726c11,3 22,7 36,9 13,3 27,6 42,8 15,2 31,4 48,5 0,0 1,0 1,0l-5 -16c-14,-1 -29,-2 -43,-3 -15,-1 -29,-2 -42,-4 -13,-2 -24,-4 -35,-6 -10,-2 -19,-5 -26,-7 -8,-3 -13,-5 -17,-7 -3,-2 -5,-3 -5,-3 0,0 1,1 5,4 3,2 8,6 15,9 7,4 16,7 26,11z"/>
    <path class="fil0" d="M868 735c-17,0 -33,-1 -50,-1 -4,0 -9,-1 -14,-1l10 18c1,0 3,0 4,0 14,1 29,1 44,2l6 -18z"/>
    <path class="fil0" d="M1022 745c-15,-2 -31,-4 -47,-5 -17,-1 -34,-2 -51,-3 -8,0 -15,0 -23,-1l-2 18c8,0 16,1 24,1 17,0 34,1 51,1 16,1 32,1 47,2 15,1 29,2 42,4 13,2 25,3 35,6 11,2 19,5 26,8 7,3 12,6 15,9 2,1 3,3 4,3 1,1 1,2 1,2 0,0 0,-1 -1,-2 -1,-1 -2,-2 -3,-4 -3,-3 -7,-7 -14,-11 -13,-8 -35,-16 -61,-21 -13,-3 -28,-5 -43,-7z"/>
    <path class="fil0" d="M797 716c17,1 35,1 53,2 7,0 15,0 23,1l5 -18c-9,-1 -18,-1 -28,-1 -17,-1 -35,-1 -52,-2 -5,0 -9,0 -13,0l10 18c0,0 1,0 2,0z"/>
    <path class="fil0" d="M656 700c13,3 27,5 42,7 15,2 31,4 48,6 4,0 8,0 12,0l-5 -16c-2,0 -4,0 -6,0 -16,-1 -32,-2 -47,-3 -15,-1 -29,-3 -42,-4 -13,-2 -25,-4 -36,-6 -10,-3 -19,-5 -26,-8 -7,-2 -13,-5 -16,-7 -4,-2 -6,-3 -6,-3 0,0 2,2 5,4 4,3 9,6 16,10 7,3 15,7 26,10 10,4 22,7 35,10z"/>
    <path class="fil0" d="M903 719c17,1 34,1 50,2 16,0 32,1 47,2 15,1 29,2 42,4 13,1 25,3 36,5 10,3 19,6 26,9 6,3 12,6 15,9 1,1 2,2 3,3 1,1 1,1 1,1 0,0 0,0 -1,-1 0,-1 -1,-2 -3,-4 -2,-3 -7,-7 -14,-12 -13,-8 -35,-15 -61,-21 -13,-2 -27,-5 -42,-7 -16,-2 -32,-3 -48,-4 -16,-1 -32,-3 -49,-3l-2 17z"/>
   </g>
  </g>
  <g id="_631008959232">
   <rect class="fil1" x="861" width="5.85825" height="82.0122"/>
   <rect class="fil1" transform="matrix(0.420276 0.0354437 -0.00439135 0.0520707 933.644 3.13653)" width="13.8898" height="1569.44"/>
   <rect class="fil1" transform="matrix(0.415811 0.0706367 -0.00875164 0.0515175 1005.5 12.253)" width="13.8898" height="1569.44"/>
   <rect class="fil1" transform="matrix(0.408404 0.10533 -0.01305 0.0505998 1076.33 27.3753)" width="13.8898" height="1569.44"/>
   <rect class="fil1" transform="matrix(0.398108 0.139278 -0.0172561 0.0493242 1145.64 48.3967)" width="13.8898" height="1569.44"/>
   <rect class="fil1" transform="matrix(0.384995 0.172241 -0.02134 0.0476996 1212.94 75.1683)" width="13.8898" height="1569.44"/>
   <rect class="fil1" transform="matrix(0.369159 0.203985 -0.025273 0.0457375 1277.75 107.501)" width="13.8898" height="1569.44"/>
   <rect class="fil1" transform="matrix(0.350711 0.234286 -0.0290272 0.0434519 1339.61 145.165)" width="13.8898" height="1569.44"/>
   <rect class="fil1" transform="matrix(0.329782 0.26293 -0.0325761 0.0408588 1398.09 187.895)" width="13.8898" height="1569.44"/>
   <rect class="fil1" transform="matrix(0.30652 0.289713 -0.0358945 0.0379767 1452.78 235.389)" width="13.8898" height="1569.44"/>
   <rect class="fil1" transform="matrix(0.281089 0.314447 -0.0389589 0.034826 1503.28 287.31)" width="13.8898" height="1569.44"/>
   <rect class="fil1" transform="matrix(0.25367 0.336956 -0.0417477 0.0314288 1549.23 343.291)" width="13.8898" height="1569.44"/>
   <rect class="fil1" transform="matrix(0.224456 0.357082 -0.0442412 0.0278093 1590.32 402.936)" width="13.8898" height="1569.44"/>
   <rect class="fil1" transform="matrix(0.193654 0.374681 -0.0464217 0.0239931 1626.25 465.823)" width="13.8898" height="1569.44"/>
   <rect class="fil1" transform="matrix(0.161483 0.38963 -0.0482738 0.0200071 1656.77 531.507)" width="13.8898" height="1569.44"/>
   <rect class="fil1" transform="matrix(0.128168 0.401822 -0.0497844 0.0158796 1681.67 599.523)" width="13.8898" height="1569.44"/>
   <rect class="fil1" transform="matrix(0.0939475 0.411171 -0.0509427 0.0116398 1700.76 669.391)" width="13.8898" height="1569.44"/>
   <rect class="fil1" transform="matrix(0.059062 0.417612 -0.0517407 0.00731758 1713.9 740.616)" width="13.8898" height="1569.44"/>
   <rect class="fil1" transform="matrix(0.0237586 0.421098 -0.0521726 0.00294361 1721.02 812.694)" width="13.8898" height="1569.44"/>
   <rect class="fil1" transform="matrix(-0.0117129 0.421605 -0.0522354 -0.00145119 1722.06 885.115)" width="13.8898" height="1569.44"/>
   <rect class="fil1" transform="matrix(-0.0471015 0.419129 -0.0519287 -0.00583571 1717 957.366)" width="13.8898" height="1569.44"/>
   <rect class="fil1" transform="matrix(-0.0821569 0.413689 -0.0512546 -0.010179 1705.89 1028.94)" width="13.8898" height="1569.44"/>
   <rect class="fil1" transform="matrix(-0.116631 0.405321 -0.0502179 -0.0144502 1688.81 1099.32)" width="13.8898" height="1569.44"/>
   <rect class="fil1" transform="matrix(-0.15028 0.394086 -0.0488259 -0.0186192 1665.87 1168.02)" width="13.8898" height="1569.44"/>
   <rect class="fil1" transform="matrix(-0.182866 0.380063 -0.0470885 -0.0226565 1637.24 1234.55)" width="13.8898" height="1569.44"/>
   <rect class="fil1" transform="matrix(-0.214158 0.363352 -0.045018 -0.0265335 1603.12 1298.44)" width="13.8898" height="1569.44"/>
   <rect class="fil1" transform="matrix(-0.243935 0.344069 -0.042629 -0.0302227 1563.76 1359.24)" width="13.8898" height="1569.44"/>
   <rect class="fil1" transform="matrix(-0.271987 0.322353 -0.0399384 -0.0336982 1519.42 1416.51)" width="13.8898" height="1569.44"/>
   <rect class="fil1" transform="matrix(-0.298114 0.298356 -0.0369653 -0.0369353 1470.42 1469.85)" width="13.8898" height="1569.44"/>
   <rect class="fil1" transform="matrix(-0.322132 0.272248 -0.0337306 -0.039911 1417.12 1518.89)" width="13.8898" height="1569.44"/>
   <rect class="fil1" transform="matrix(-0.343871 0.244214 -0.0302573 -0.0426044 1359.88 1563.27)" width="13.8898" height="1569.44"/>
   <rect class="fil1" transform="matrix(-0.363178 0.214453 -0.02657 -0.0449964 1299.12 1602.69)" width="13.8898" height="1569.44"/>
   <rect class="fil1" transform="matrix(-0.379915 0.183174 -0.0226947 -0.0470701 1235.26 1636.86)" width="13.8898" height="1569.44"/>
   <rect class="fil1" transform="matrix(-0.393964 0.1506 -0.0186588 -0.0488108 1168.75 1665.55)" width="13.8898" height="1569.44"/>
   <rect class="fil1" transform="matrix(-0.405226 0.11696 -0.0144909 -0.0502061 1100.07 1688.54)" width="13.8898" height="1569.44"/>
   <rect class="fil1" transform="matrix(-0.413622 0.0824927 -0.0102206 -0.0512463 1029.7 1705.68)" width="13.8898" height="1569.44"/>
   <rect class="fil1" transform="matrix(-0.419091 0.0474417 -0.00587787 -0.0519239 958.14 1716.85)" width="13.8898" height="1569.44"/>
   <rect class="fil1" transform="matrix(-0.421595 0.0120551 -0.00149359 -0.0522342 885.892 1721.96)" width="13.8898" height="1569.44"/>
   <rect class="fil1" transform="matrix(-0.421117 -0.0234167 0.00290125 -0.052175 813.47 1720.98)" width="13.8898" height="1569.44"/>
   <rect class="fil1" transform="matrix(-0.41766 -0.0587229 0.00727557 -0.0517466 741.387 1713.92)" width="13.8898" height="1569.44"/>
   <rect class="fil1" transform="matrix(-0.411247 -0.0936137 0.0115984 -0.0509521 670.151 1700.83)" width="13.8898" height="1569.44"/>
   <rect class="fil1" transform="matrix(-0.401926 -0.127842 0.0158392 -0.0497972 600.268 1681.8)" width="13.8898" height="1569.44"/>
   <rect class="fil1" transform="matrix(-0.389761 -0.161166 0.0199679 -0.04829 532.231 1656.96)" width="13.8898" height="1569.44"/>
   <rect class="fil1" transform="matrix(-0.374838 -0.19335 0.0239554 -0.0464412 466.523 1626.5)" width="13.8898" height="1569.44"/>
   <rect class="fil1" transform="matrix(-0.357264 -0.224166 0.0277734 -0.0442638 403.606 1590.62)" width="13.8898" height="1569.44"/>
   <rect class="fil1" transform="matrix(-0.337162 -0.253396 0.0313949 -0.0417732 343.928 1549.57)" width="13.8898" height="1569.44"/>
   <rect class="fil1" transform="matrix(-0.314675 -0.280834 0.0347943 -0.0389872 287.91 1503.66)" width="13.8898" height="1569.44"/>
   <rect class="fil1" transform="matrix(-0.289962 -0.306284 0.0379476 -0.0359253 235.948 1453.21)" width="13.8898" height="1569.44"/>
   <rect class="fil1" transform="matrix(-0.263197 -0.329568 0.0408324 -0.0326092 188.41 1398.56)" width="13.8898" height="1569.44"/>
   <rect class="fil1" transform="matrix(-0.234571 -0.350521 0.0434283 -0.0290625 145.633 1340.12)" width="13.8898" height="1569.44"/>
   <rect class="fil1" transform="matrix(-0.204285 -0.368993 0.045717 -0.0253101 107.918 1278.28)" width="13.8898" height="1569.44"/>
   <rect class="fil1" transform="matrix(-0.172553 -0.384855 0.0476822 -0.0213787 75.5327 1213.5)" width="13.8898" height="1569.44"/>
   <rect class="fil1" transform="matrix(-0.139601 -0.397994 0.0493101 -0.0172961 48.7065 1146.22)" width="13.8898" height="1569.44"/>
   <rect class="fil1" transform="matrix(-0.105661 -0.408318 0.0505892 -0.0130911 27.6289 1076.93)" width="13.8898" height="1569.44"/>
   <rect class="fil1" transform="matrix(-0.0709742 -0.415753 0.0515104 -0.00879346 12.4491 1006.11)" width="13.8898" height="1569.44"/>
   <rect class="fil1" transform="matrix(-0.0357849 -0.420247 0.0520671 -0.00443362 3.2743 934.262)" width="13.8898" height="1569.44"/>
   <rect class="fil1" transform="matrix(-0.000342386 -0.421768 0.0522556 -4.24204E-005 0.169564 861.9)" width="13.8898" height="1569.44"/>
   <rect class="fil1" transform="matrix(0.0351025 -0.420304 0.0520743 0.00434908 3.15681 789.533)" width="13.8898" height="1569.44"/>
   <rect class="fil1" transform="matrix(0.0702991 -0.415868 0.0515246 0.00870982 12.2149 717.673)" width="13.8898" height="1569.44"/>
   <rect class="fil1" transform="matrix(0.104998 -0.408489 0.0506104 0.0130089 27.2798 646.829)" width="13.8898" height="1569.44"/>
   <rect class="fil1" transform="matrix(0.138955 -0.398221 0.0493382 0.017216 48.2449 577.501)" width="13.8898" height="1569.44"/>
   <rect class="fil1" transform="matrix(0.171928 -0.385135 0.0477169 0.0213013 74.9618 510.18)" width="13.8898" height="1569.44"/>
   <rect class="fil1" transform="matrix(0.203685 -0.369324 0.045758 0.0252359 107.242 445.343)" width="13.8898" height="1569.44"/>
   <rect class="fil1" transform="matrix(0.234001 -0.350901 0.0434754 0.0289919 144.856 383.448)" width="13.8898" height="1569.44"/>
   <rect class="fil1" transform="matrix(0.262662 -0.329995 0.0408853 0.0325429 187.539 324.932)" width="13.8898" height="1569.44"/>
   <rect class="fil1" transform="matrix(0.289464 -0.306755 0.0380059 0.0358636 234.988 270.211)" width="13.8898" height="1569.44"/>
   <rect class="fil1" transform="matrix(0.314219 -0.281344 0.0348576 0.0389306 286.868 219.67)" width="13.8898" height="1569.44"/>
   <rect class="fil1" transform="matrix(0.33675 -0.253943 0.0314627 0.0417222 342.811 173.668)" width="13.8898" height="1569.44"/>
   <rect class="fil1" transform="matrix(0.3569 -0.224746 0.0278452 0.0442186 402.423 132.53)" width="13.8898" height="1569.44"/>
   <rect class="fil1" transform="matrix(0.374524 -0.193958 0.0240308 0.0464022 465.281 96.5469)" width="13.8898" height="1569.44"/>
   <rect class="fil1" transform="matrix(0.389499 -0.161799 0.0200463 0.0482575 530.94 65.9735)" width="13.8898" height="1569.44"/>
   <rect class="fil1" transform="matrix(0.401718 -0.128495 0.01592 0.0497715 598.936 41.0259)" width="13.8898" height="1569.44"/>
   <rect class="fil1" transform="matrix(0.411095 -0.0942813 0.0116811 0.0509333 668.788 21.8808)" width="13.8898" height="1569.44"/>
   <rect class="fil1" transform="matrix(0.417564 -0.059401 0.00735958 0.0517347 740.002 8.67353)" width="13.8898" height="1569.44"/>
   <rect class="fil1" transform="matrix(0.421079 -0.0241004 0.00298596 0.0521702 812.074 1.49751)" width="13.8898" height="1569.44"/>
  </g>
  <g id="_631008958848">
   <g>
    <path class="fil1" d="M951 647c5,1 9,-2 10,-7 1,-5 -3,-9 -7,-10 -5,-1 -10,3 -10,8 -1,4 2,9 7,9z"/>
    <path class="fil1" d="M936 725c-9,3 -14,12 -12,21 2,9 11,14 20,12 9,-3 14,-12 12,-21 -2,-9 -11,-14 -20,-12z"/>
    <path class="fil1" d="M1146 781l-71 -96 -67 -32c1,-2 1,-4 2,-6 1,-9 -3,-19 -15,-25 1,-3 1,-6 2,-8 0,-9 -3,-16 -9,-21 -4,-3 -9,-5 -14,-5 -4,0 -9,1 -15,6 -8,-9 -16,-10 -20,-10 -3,0 -5,0 -8,1 -6,3 -10,7 -13,12 -1,3 -2,8 -2,14 -4,0 -8,2 -11,4 -2,-4 -5,-7 -9,-10 -4,-2 -9,-3 -13,-3 -6,0 -16,2 -25,13 -10,-11 -20,-13 -25,-13 -5,0 -9,1 -13,3 -6,4 -11,10 -13,17 -1,6 -1,13 2,21 -19,4 -27,16 -27,28 0,12 8,25 27,28 -6,18 0,32 11,38 4,2 8,3 13,3 3,0 8,0 15,-4l2 4c3,5 8,10 15,14l-187 141c0,0 -22,23 -63,16 -41,-6 -44,4 -33,13 10,8 51,34 74,34 47,-2 175,-73 218,-64 -51,51 -145,192 -168,200 -24,8 -69,9 -73,20 -4,11 52,25 83,25 30,-1 130,-92 171,-106 40,-14 93,-24 100,-53 6,-29 -23,-40 -21,-63 3,-23 180,-136 180,-136zm-218 -157c4,1 8,2 11,4 -3,-2 -5,-6 -6,-9 -5,-11 -3,-19 3,-21 6,-2 12,1 17,13 1,3 2,7 2,11 1,-4 2,-7 5,-10 7,-10 15,-12 19,-8 5,4 5,12 -2,21 -2,3 -5,5 -9,7 4,-1 8,-1 12,0 12,1 17,7 16,13 -1,6 -7,10 -19,8 -4,0 -8,-2 -11,-4 3,3 5,6 6,10 5,11 2,18 -3,21 -6,2 -13,-2 -17,-13 -1,-3 -2,-7 -2,-11 -1,3 -3,7 -5,10 -7,10 -15,11 -20,7 -5,-3 -5,-11 3,-21 2,-2 5,-5 9,-7 -4,1 -8,2 -12,1 -12,-2 -17,-7 -16,-13 1,-6 7,-10 19,-9zm-75 87c-9,14 -19,18 -26,14 -8,-4 -10,-15 -1,-30 2,-4 6,-8 11,-12 -5,2 -11,4 -16,4 -17,0 -25,-7 -25,-16 0,-8 8,-15 25,-15 5,0 11,1 16,3 -5,-3 -9,-7 -11,-12 -9,-15 -7,-25 1,-30 7,-4 17,0 26,15 2,4 4,10 5,15 0,-5 2,-11 4,-15 9,-15 19,-19 27,-15 7,5 9,15 0,30 -2,5 -6,9 -10,12 5,-2 10,-3 15,-3 8,0 14,1 18,3 -7,5 -12,13 -11,27 -2,1 -4,1 -7,1 -5,0 -11,-2 -16,-4 5,4 9,8 11,12 2,3 3,6 4,8 -13,-2 -25,0 -31,6 -2,-4 -4,-9 -4,-14 -1,6 -3,11 -5,16zm80 83c-2,-7 -2,-14 -1,-21 -3,6 -7,13 -12,18 -16,16 -31,17 -39,9 -8,-8 -7,-22 10,-39 5,-4 11,-8 18,-11 -7,1 -15,1 -22,-1 -22,-6 -30,-18 -27,-29 3,-11 16,-17 38,-11 7,2 13,5 19,10 -4,-6 -8,-13 -10,-19 -6,-23 0,-36 11,-39 0,3 -1,5 0,7 0,4 2,7 5,9 2,2 5,3 8,3 3,0 7,-1 11,-5 2,4 4,8 5,14 2,6 2,14 1,21 3,-6 7,-13 12,-18 4,-3 7,-6 10,-8l0 0 3 -2c11,-6 20,-5 26,1 8,8 7,22 -10,39 -5,4 -11,8 -18,11 7,-1 15,-1 22,1 22,6 30,18 27,29 -3,11 -16,17 -38,11 -7,-2 -13,-5 -19,-10 4,6 8,13 10,19 6,23 0,36 -11,39 -12,3 -23,-6 -29,-28z"/>
    <circle class="fil1" cx="858" cy="671" r="12"/>
   </g>
  </g>
 </g>
</svg>
