<?xml version="1.0" encoding="UTF-8"?>
<!DOCTYPE svg PUBLIC "-//W3C//DTD SVG 1.1//EN" "http://www.w3.org/Graphics/SVG/1.1/DTD/svg11.dtd">
<!-- Creator: CorelDRAW X7 -->
<svg xmlns="http://www.w3.org/2000/svg" xml:space="preserve" width="0.583331in" height="0.583331in" version="1.1" style="shape-rendering:geometricPrecision; text-rendering:geometricPrecision; image-rendering:optimizeQuality; fill-rule:evenodd; clip-rule:evenodd"
viewBox="0 0 583 583"
 xmlns:xlink="http://www.w3.org/1999/xlink">
 <defs>
  <style type="text/css">
   <![CDATA[
    .fil0 {fill:#FEFEFE}
   ]]>
  </style>
 </defs>
 <g id="Layer_x0020_1">
  <metadata id="CorelCorpID_0Corel-Layer"/>
  <g id="_631006212304">
   <path class="fil0" d="M459 459c92,-92 92,-242 0,-334 -92,-92 -242,-92 -334,0 -92,92 -92,242 0,334 92,92 242,92 334,0zm-309 -309c78,-77 205,-78 283,0 78,78 78,205 0,283 -78,78 -205,78 -283,0 -78,-78 -77,-205 0,-283zm168 91c0,-21 17,-39 38,-39 22,0 39,18 39,39 0,6 -5,11 -11,11 -6,0 -11,-5 -11,-11 0,-9 -8,-16 -17,-16 -9,0 -16,7 -16,16 0,6 -5,11 -11,11 -6,0 -11,-5 -11,-11zm-124 0c0,-21 18,-39 39,-39 21,0 39,18 39,39 0,6 -5,11 -11,11 -7,0 -12,-5 -12,-11 0,-9 -7,-17 -16,-17 -9,0 -17,8 -17,17 0,6 -5,11 -11,11 -6,0 -11,-5 -11,-11zm-5 99c-3,-6 1,-14 7,-17 2,-1 4,-1 6,-1 5,0 10,3 12,8 12,30 43,49 78,49 34,0 65,-19 77,-49 3,-7 11,-10 18,-7 7,3 10,11 7,18 -17,39 -57,65 -102,65 -46,0 -86,-26 -103,-66z"/>
  </g>
  <g id="_631006213264">
  </g>
  <g id="_631006211504">
  </g>
  <g id="_631006211920">
  </g>
  <g id="_631006210192">
  </g>
  <g id="_631006209552">
  </g>
  <g id="_631006209488">
  </g>
  <g id="_631006209648">
  </g>
  <g id="_631006208560">
  </g>
  <g id="_631006206192">
  </g>
  <g id="_631006205968">
  </g>
  <g id="_631006206448">
  </g>
  <g id="_631006205072">
  </g>
  <g id="_631006204368">
  </g>
  <g id="_631006205264">
  </g>
  <g id="_631006205648">
  </g>
 </g>
</svg>
