<?xml version="1.0" encoding="UTF-8"?>
<!DOCTYPE svg PUBLIC "-//W3C//DTD SVG 1.1//EN" "http://www.w3.org/Graphics/SVG/1.1/DTD/svg11.dtd">
<!-- Creator: CorelDRAW X7 -->
<svg xmlns="http://www.w3.org/2000/svg" xml:space="preserve" width="0.583331in" height="0.583331in" version="1.1" style="shape-rendering:geometricPrecision; text-rendering:geometricPrecision; image-rendering:optimizeQuality; fill-rule:evenodd; clip-rule:evenodd"
viewBox="0 0 583 583"
 xmlns:xlink="http://www.w3.org/1999/xlink">
 <defs>
  <style type="text/css">
   <![CDATA[
    .fil0 {fill:#FEFEFE}
   ]]>
  </style>
 </defs>
 <g id="Layer_x0020_1">
  <metadata id="CorelCorpID_0Corel-Layer"/>
  <g id="_630682348576">
   <path class="fil0" d="M292 42c-138,0 -250,112 -250,250 0,138 112,250 250,250 138,0 250,-112 250,-250 0,-138 -112,-250 -250,-250zm0 461c-117,0 -211,-95 -211,-211 0,-117 94,-211 211,-211 116,0 211,94 211,211 0,116 -95,211 -211,211z"/>
   <path class="fil0" d="M417 209c-5,2 -17,7 -29,8 8,-4 19,-18 22,-30 -8,5 -24,12 -33,12 0,0 0,0 0,0 -9,-10 -22,-17 -37,-17 -28,0 -51,25 -51,56 0,4 0,8 1,12l0 0c-39,-1 -84,-22 -109,-57 -16,29 -3,61 15,73 -6,0 -17,-1 -22,-6 -1,19 8,45 39,54 -6,4 -16,2 -21,2 2,16 23,37 46,37 -8,11 -36,29 -71,23 23,16 51,25 80,25 84,0 148,-73 145,-162 0,0 0,0 0,0 0,-1 0,-1 0,-1 0,0 0,-1 0,-1 7,-6 17,-15 25,-28z"/>
  </g>
  <g id="_630682348544">
  </g>
  <g id="_630682346656">
  </g>
  <g id="_630682347136">
  </g>
  <g id="_630682346368">
  </g>
  <g id="_630682347776">
  </g>
  <g id="_630682346976">
  </g>
  <g id="_630682346304">
  </g>
  <g id="_630682344544">
  </g>
  <g id="_630682343968">
  </g>
  <g id="_630682344832">
  </g>
  <g id="_630682345408">
  </g>
  <g id="_630682344800">
  </g>
  <g id="_630682345504">
  </g>
  <g id="_630682342848">
  </g>
  <g id="_630682342304">
  </g>
 </g>
</svg>
