<?xml version="1.0" encoding="UTF-8"?>
<!DOCTYPE svg PUBLIC "-//W3C//DTD SVG 1.1//EN" "http://www.w3.org/Graphics/SVG/1.1/DTD/svg11.dtd">
<!-- Creator: CorelDRAW X7 -->
<svg xmlns="http://www.w3.org/2000/svg" xml:space="preserve" width="0.98611in" height="0.98611in" version="1.1" style="shape-rendering:geometricPrecision; text-rendering:geometricPrecision; image-rendering:optimizeQuality; fill-rule:evenodd; clip-rule:evenodd"
viewBox="0 0 986 986"
 xmlns:xlink="http://www.w3.org/1999/xlink">
 <defs>
  <style type="text/css">
   <![CDATA[
    .fil0 {fill:#FEFEFE}
   ]]>
  </style>
 </defs>
 <g id="Layer_x0020_1">
  <metadata id="CorelCorpID_0Corel-Layer"/>
  <g id="_608437322800">
   <g id="_631015427376">
    <rect class="fil0" x="493" y="7" width="3.30707" height="46.3108"/>
    <rect class="fil0" transform="matrix(0.237234 0.020007 -0.0024788 0.0293925 534.011 8.61004)" width="13.8937" height="1570"/>
    <rect class="fil0" transform="matrix(0.234714 0.0398724 -0.00494006 0.0290802 574.586 13.7578)" width="13.8937" height="1570"/>
    <rect class="fil0" transform="matrix(0.230533 0.0594559 -0.00736637 0.0285622 614.582 22.2969)" width="13.8937" height="1570"/>
    <rect class="fil0" transform="matrix(0.224721 0.0786186 -0.0097406 0.0278421 653.72 34.1672)" width="13.8937" height="1570"/>
    <rect class="fil0" transform="matrix(0.217319 0.0972252 -0.0120459 0.0269251 691.722 49.2843)" width="13.8937" height="1570"/>
    <rect class="fil0" transform="matrix(0.20838 0.115144 -0.0142659 0.0258175 728.318 67.5417)" width="13.8937" height="1570"/>
    <rect class="fil0" transform="matrix(0.197967 0.132247 -0.016385 0.0245274 763.249 88.8095)" width="13.8937" height="1570"/>
    <rect class="fil0" transform="matrix(0.186153 0.148416 -0.0183883 0.0230636 796.271 112.938)" width="13.8937" height="1570"/>
    <rect class="fil0" transform="matrix(0.173022 0.163535 -0.0202615 0.0214368 827.153 139.756)" width="13.8937" height="1570"/>
    <rect class="fil0" transform="matrix(0.158667 0.177496 -0.0219912 0.0196583 855.668 169.075)" width="13.8937" height="1570"/>
    <rect class="fil0" transform="matrix(0.143189 0.190202 -0.0235654 0.0177407 881.615 200.686)" width="13.8937" height="1570"/>
    <rect class="fil0" transform="matrix(0.126699 0.201563 -0.024973 0.0156975 904.818 234.365)" width="13.8937" height="1570"/>
    <rect class="fil0" transform="matrix(0.109313 0.211497 -0.0262038 0.0135434 925.107 269.876)" width="13.8937" height="1570"/>
    <rect class="fil0" transform="matrix(0.0911527 0.219935 -0.0272493 0.0112935 942.341 306.965)" width="13.8937" height="1570"/>
    <rect class="fil0" transform="matrix(0.0723473 0.226817 -0.028102 0.00896359 956.401 345.373)" width="13.8937" height="1570"/>
    <rect class="fil0" transform="matrix(0.0530308 0.232095 -0.0287558 0.00657034 967.18 384.825)" width="13.8937" height="1570"/>
    <rect class="fil0" transform="matrix(0.0333389 0.23573 -0.0292062 0.00413057 974.6 425.044)" width="13.8937" height="1570"/>
    <rect class="fil0" transform="matrix(0.013411 0.237698 -0.02945 0.00166158 978.621 465.745)" width="13.8937" height="1570"/>
    <rect class="fil0" transform="matrix(-0.00661161 0.237984 -0.0294855 -0.000819157 979.208 506.639)" width="13.8937" height="1570"/>
    <rect class="fil0" transform="matrix(-0.0265875 0.236587 -0.0293124 -0.0032941 976.35 547.437)" width="13.8937" height="1570"/>
    <rect class="fil0" transform="matrix(-0.0463753 0.233516 -0.0289318 -0.00574576 970.077 587.853)" width="13.8937" height="1570"/>
    <rect class="fil0" transform="matrix(-0.065835 0.228792 -0.0283467 -0.00815674 960.433 627.594)" width="13.8937" height="1570"/>
    <rect class="fil0" transform="matrix(-0.084829 0.22245 -0.0275609 -0.0105101 947.479 666.387)" width="13.8937" height="1570"/>
    <rect class="fil0" transform="matrix(-0.103223 0.214535 -0.0265802 -0.0127889 931.312 703.955)" width="13.8937" height="1570"/>
    <rect class="fil0" transform="matrix(-0.120887 0.205102 -0.0254114 -0.0149774 912.046 740.032)" width="13.8937" height="1570"/>
    <rect class="fil0" transform="matrix(-0.137694 0.194217 -0.0240629 -0.0170598 889.82 774.363)" width="13.8937" height="1570"/>
    <rect class="fil0" transform="matrix(-0.153529 0.181959 -0.0225441 -0.0190217 864.783 806.703)" width="13.8937" height="1570"/>
    <rect class="fil0" transform="matrix(-0.168277 0.168413 -0.0208659 -0.0208489 837.113 836.822)" width="13.8937" height="1570"/>
    <rect class="fil0" transform="matrix(-0.181834 0.153676 -0.01904 -0.0225286 807.017 864.513)" width="13.8937" height="1570"/>
    <rect class="fil0" transform="matrix(-0.194106 0.137852 -0.0170794 -0.024049 774.695 889.574)" width="13.8937" height="1570"/>
    <rect class="fil0" transform="matrix(-0.205004 0.121053 -0.014998 -0.0253992 740.385 911.833)" width="13.8937" height="1570"/>
    <rect class="fil0" transform="matrix(-0.214452 0.103397 -0.0128105 -0.0265698 704.325 931.128)" width="13.8937" height="1570"/>
    <rect class="fil0" transform="matrix(-0.222382 0.0850095 -0.0105324 -0.0275523 666.769 947.329)" width="13.8937" height="1570"/>
    <rect class="fil0" transform="matrix(-0.228739 0.0660206 -0.00817972 -0.02834 627.987 960.31)" width="13.8937" height="1570"/>
    <rect class="fil0" transform="matrix(-0.233478 0.0465648 -0.00576925 -0.0289271 588.251 969.989)" width="13.8937" height="1570"/>
    <rect class="fil0" transform="matrix(-0.236565 0.0267795 -0.0033179 -0.0293096 547.843 976.296)" width="13.8937" height="1570"/>
    <rect class="fil0" transform="matrix(-0.237979 0.00680477 -0.000843091 -0.0294848 507.047 979.182)" width="13.8937" height="1570"/>
    <rect class="fil0" transform="matrix(-0.237709 -0.013218 0.00163767 -0.0294514 466.152 978.628)" width="13.8937" height="1570"/>
    <rect class="fil0" transform="matrix(-0.235758 -0.0331475 0.00410686 -0.0292095 425.449 974.642)" width="13.8937" height="1570"/>
    <rect class="fil0" transform="matrix(-0.232138 -0.0528423 0.00654698 -0.0287611 385.224 967.25)" width="13.8937" height="1570"/>
    <rect class="fil0" transform="matrix(-0.226876 -0.0721632 0.00894079 -0.0281091 345.763 956.504)" width="13.8937" height="1570"/>
    <rect class="fil0" transform="matrix(-0.220009 -0.0909737 0.0112714 -0.0272584 307.344 942.478)" width="13.8937" height="1570"/>
    <rect class="fil0" transform="matrix(-0.211586 -0.109141 0.0135221 -0.0262148 270.24 925.278)" width="13.8937" height="1570"/>
    <rect class="fil0" transform="matrix(-0.201666 -0.126535 0.0156773 -0.0249857 234.714 905.017)" width="13.8937" height="1570"/>
    <rect class="fil0" transform="matrix(-0.190319 -0.143035 0.0177215 -0.0235798 201.015 881.838)" width="13.8937" height="1570"/>
    <rect class="fil0" transform="matrix(-0.177625 -0.158523 0.0196404 -0.0220072 169.383 855.914)" width="13.8937" height="1570"/>
    <rect class="fil0" transform="matrix(-0.163675 -0.172888 0.0214204 -0.0202788 140.042 827.426)" width="13.8937" height="1570"/>
    <rect class="fil0" transform="matrix(-0.148567 -0.186032 0.0230488 -0.018407 113.198 796.566)" width="13.8937" height="1570"/>
    <rect class="fil0" transform="matrix(-0.132408 -0.197859 0.0245141 -0.0164049 89.0428 763.567)" width="13.8937" height="1570"/>
    <rect class="fil0" transform="matrix(-0.115314 -0.208286 0.025806 -0.0142868 67.7461 728.648)" width="13.8937" height="1570"/>
    <rect class="fil0" transform="matrix(-0.0974015 -0.21724 0.0269153 -0.0120677 49.4591 692.068)" width="13.8937" height="1570"/>
    <rect class="fil0" transform="matrix(-0.078801 -0.224656 0.0278342 -0.00976317 34.311 654.078)" width="13.8937" height="1570"/>
    <rect class="fil0" transform="matrix(-0.0596428 -0.230484 0.0285562 -0.00738956 22.409 614.951)" width="13.8937" height="1570"/>
    <rect class="fil0" transform="matrix(-0.040063 -0.234681 0.0290762 -0.00496366 13.8374 574.961)" width="13.8937" height="1570"/>
    <rect class="fil0" transform="matrix(-0.0201996 -0.237218 0.0293905 -0.00250266 8.65668 534.391)" width="13.8937" height="1570"/>
    <rect class="fil0" transform="matrix(-0.000193267 -0.238076 0.0294969 -2.39451E-005 6.90352 493.53)" width="13.8937" height="1570"/>
    <rect class="fil0" transform="matrix(0.0198144 -0.23725 0.0293945 0.00245493 8.59032 452.666)" width="13.8937" height="1570"/>
    <rect class="fil0" transform="matrix(0.0396819 -0.234746 0.0290843 0.00491645 13.7052 412.089)" width="13.8937" height="1570"/>
    <rect class="fil0" transform="matrix(0.0592686 -0.230581 0.0285682 0.00734316 22.2119 372.085)" width="13.8937" height="1570"/>
    <rect class="fil0" transform="matrix(0.0784363 -0.224785 0.0278501 0.00971795 34.0503 332.937)" width="13.8937" height="1570"/>
    <rect class="fil0" transform="matrix(0.0970487 -0.217398 0.0269349 0.012024 49.1366 294.924)" width="13.8937" height="1570"/>
    <rect class="fil0" transform="matrix(0.114975 -0.208473 0.0258291 0.0142449 67.3643 258.312)" width="13.8937" height="1570"/>
    <rect class="fil0" transform="matrix(0.132087 -0.198074 0.0245407 0.0163651 88.6039 223.361)" width="13.8937" height="1570"/>
    <rect class="fil0" transform="matrix(0.148265 -0.186273 0.0230786 0.0183695 112.705 190.319)" width="13.8937" height="1570"/>
    <rect class="fil0" transform="matrix(0.163394 -0.173154 0.0214533 0.020244 139.499 159.42)" width="13.8937" height="1570"/>
    <rect class="fil0" transform="matrix(0.177368 -0.15881 0.0196761 0.0219752 168.794 130.88)" width="13.8937" height="1570"/>
    <rect class="fil0" transform="matrix(0.190086 -0.143343 0.0177598 0.023551 200.384 104.904)" width="13.8937" height="1570"/>
    <rect class="fil0" transform="matrix(0.20146 -0.126862 0.0157178 0.0249602 234.045 81.675)" width="13.8937" height="1570"/>
    <rect class="fil0" transform="matrix(0.211408 -0.109484 0.0135647 0.0261928 269.539 61.3564)" width="13.8937" height="1570"/>
    <rect class="fil0" transform="matrix(0.219861 -0.091331 0.0113156 0.02724 306.615 44.0924)" width="13.8937" height="1570"/>
    <rect class="fil0" transform="matrix(0.226759 -0.0725318 0.0089864 0.0280946 345.01 30.0052)" width="13.8937" height="1570"/>
    <rect class="fil0" transform="matrix(0.232052 -0.0532192 0.00659366 0.0287504 384.454 19.1945)" width="13.8937" height="1570"/>
    <rect class="fil0" transform="matrix(0.235703 -0.0335302 0.00415428 0.0292028 424.667 11.7367)" width="13.8937" height="1570"/>
    <rect class="fil0" transform="matrix(0.237688 -0.013604 0.00168549 0.0294486 465.364 7.68455)" width="13.8937" height="1570"/>
   </g>
   <g id="_608217637360">
    <g>
     <g>
      <path class="fil0" d="M541 452c-31,0 -57,26 -57,57 0,31 26,57 57,57 31,0 56,-26 56,-57 0,-31 -25,-57 -56,-57z"/>
     </g>
     <g>
      <path class="fil0" d="M634 383l-25 0 -30 -29 -86 0 -25 29 -51 0c-3,-9 -9,-16 -16,-16l-37 0c-7,0 -14,7 -16,16 -26,3 -46,24 -46,51l0 147c0,28 23,51 51,51l281 0c28,0 50,-23 50,-51l0 -147c0,-28 -22,-51 -50,-51zm-286 185c0,5 -5,10 -10,10 -5,0 -9,-5 -9,-10l0 -101c0,-5 4,-9 9,-9 5,0 10,4 10,9l0 101zm57 -148c0,6 -4,10 -10,10l-26 0c-5,0 -10,-4 -10,-10l0 -6c0,-5 5,-10 10,-10l26 0c6,0 10,5 10,10l0 6zm136 170c-45,0 -81,-37 -81,-81 0,-45 36,-81 81,-81 44,0 81,36 81,81 0,44 -37,81 -81,81z"/>
     </g>
    </g>
   </g>
  </g>
 </g>
</svg>
